<mxfile host="app.diagrams.net" modified="2021-09-28T09:28:33.546Z" agent="5.0 (Windows NT 10.0; Win64; x64) AppleWebKit/537.36 (KHTML, like Gecko) Chrome/93.0.4577.82 Safari/537.36 Edg/93.0.961.52" etag="ObDAbMbvch-YMN9Tz5vf" version="15.3.3" type="github">
  <diagram id="Ip3hPnUQgnUTjsjkWn6E" name="第 1 页">
    <mxGraphModel dx="1879" dy="553" grid="1" gridSize="10" guides="1" tooltips="1" connect="1" arrows="1" fold="1" page="1" pageScale="1" pageWidth="827" pageHeight="1169" math="0" shadow="0">
      <root>
        <mxCell id="0" />
        <mxCell id="1" parent="0" />
        <mxCell id="E4Jw4zqdP3KQkO1Rr7Cn-1" value="&lt;pre&gt;Maximum_subarray&lt;/pre&gt;" style="rounded=1;whiteSpace=wrap;html=1;hachureGap=4;pointerEvents=0;" vertex="1" parent="1">
          <mxGeometry x="280" y="40" width="200" height="40" as="geometry" />
        </mxCell>
        <mxCell id="E4Jw4zqdP3KQkO1Rr7Cn-2" value="&lt;p style=&quot;line-height: 100%&quot;&gt;&lt;/p&gt;&lt;pre&gt;Maximum of&lt;/pre&gt;&lt;pre&gt;left_part&lt;/pre&gt;&lt;p&gt;&lt;/p&gt;" style="rounded=1;whiteSpace=wrap;html=1;hachureGap=4;pointerEvents=0;" vertex="1" parent="1">
          <mxGeometry x="160" y="120" width="120" height="40" as="geometry" />
        </mxCell>
        <mxCell id="E4Jw4zqdP3KQkO1Rr7Cn-3" value="&lt;pre&gt;Maximum of &lt;/pre&gt;&lt;pre&gt;Middle&lt;/pre&gt;" style="rounded=1;whiteSpace=wrap;html=1;hachureGap=4;pointerEvents=0;" vertex="1" parent="1">
          <mxGeometry x="320" y="120" width="120" height="40" as="geometry" />
        </mxCell>
        <mxCell id="E4Jw4zqdP3KQkO1Rr7Cn-4" value="&lt;pre&gt;Maximum of &lt;/pre&gt;&lt;pre&gt;right_part&lt;/pre&gt;" style="rounded=1;whiteSpace=wrap;html=1;hachureGap=4;pointerEvents=0;" vertex="1" parent="1">
          <mxGeometry x="480" y="120" width="120" height="40" as="geometry" />
        </mxCell>
        <mxCell id="E4Jw4zqdP3KQkO1Rr7Cn-22" style="edgeStyle=none;curved=1;rounded=0;orthogonalLoop=1;jettySize=auto;html=1;exitX=0.5;exitY=1;exitDx=0;exitDy=0;endArrow=open;startSize=14;endSize=14;sourcePerimeterSpacing=8;targetPerimeterSpacing=8;" edge="1" parent="1" source="E4Jw4zqdP3KQkO1Rr7Cn-5">
          <mxGeometry relative="1" as="geometry">
            <mxPoint x="-20" y="280" as="targetPoint" />
          </mxGeometry>
        </mxCell>
        <mxCell id="E4Jw4zqdP3KQkO1Rr7Cn-5" value="&lt;p style=&quot;line-height: 100%&quot;&gt;&lt;/p&gt;&lt;pre&gt;Maximum of&lt;/pre&gt;&lt;pre&gt;left_part&lt;/pre&gt;&lt;p&gt;&lt;/p&gt;" style="rounded=1;whiteSpace=wrap;html=1;hachureGap=4;pointerEvents=0;" vertex="1" parent="1">
          <mxGeometry x="-20" y="200" width="120" height="40" as="geometry" />
        </mxCell>
        <mxCell id="E4Jw4zqdP3KQkO1Rr7Cn-6" value="&lt;p style=&quot;line-height: 100%&quot;&gt;&lt;/p&gt;&lt;pre&gt;Maximum of&lt;/pre&gt;&lt;pre&gt;left_part&lt;/pre&gt;&lt;p&gt;&lt;/p&gt;" style="rounded=1;whiteSpace=wrap;html=1;hachureGap=4;pointerEvents=0;" vertex="1" parent="1">
          <mxGeometry x="110" y="200" width="120" height="40" as="geometry" />
        </mxCell>
        <mxCell id="E4Jw4zqdP3KQkO1Rr7Cn-7" value="&lt;p style=&quot;line-height: 100%&quot;&gt;&lt;/p&gt;&lt;pre&gt;Maximum of&lt;/pre&gt;&lt;pre&gt;left_part&lt;/pre&gt;&lt;p&gt;&lt;/p&gt;" style="rounded=1;whiteSpace=wrap;html=1;hachureGap=4;pointerEvents=0;" vertex="1" parent="1">
          <mxGeometry x="240" y="200" width="120" height="40" as="geometry" />
        </mxCell>
        <mxCell id="E4Jw4zqdP3KQkO1Rr7Cn-8" value="&lt;p style=&quot;line-height: 100%&quot;&gt;&lt;/p&gt;&lt;pre&gt;Maximum of&lt;/pre&gt;&lt;pre&gt;left_part&lt;/pre&gt;&lt;p&gt;&lt;/p&gt;" style="rounded=1;whiteSpace=wrap;html=1;hachureGap=4;pointerEvents=0;" vertex="1" parent="1">
          <mxGeometry x="400" y="200" width="120" height="40" as="geometry" />
        </mxCell>
        <mxCell id="E4Jw4zqdP3KQkO1Rr7Cn-9" value="&lt;p style=&quot;line-height: 100%&quot;&gt;&lt;/p&gt;&lt;pre&gt;Maximum of&lt;/pre&gt;&lt;pre&gt;left_part&lt;/pre&gt;&lt;p&gt;&lt;/p&gt;" style="rounded=1;whiteSpace=wrap;html=1;hachureGap=4;pointerEvents=0;" vertex="1" parent="1">
          <mxGeometry x="530" y="200" width="120" height="40" as="geometry" />
        </mxCell>
        <mxCell id="E4Jw4zqdP3KQkO1Rr7Cn-10" value="&lt;p style=&quot;line-height: 100%&quot;&gt;&lt;/p&gt;&lt;pre&gt;Maximum of&lt;/pre&gt;&lt;pre&gt;left_part&lt;/pre&gt;&lt;p&gt;&lt;/p&gt;" style="rounded=1;whiteSpace=wrap;html=1;hachureGap=4;pointerEvents=0;" vertex="1" parent="1">
          <mxGeometry x="660" y="200" width="120" height="40" as="geometry" />
        </mxCell>
        <mxCell id="E4Jw4zqdP3KQkO1Rr7Cn-12" value="" style="endArrow=classic;html=1;startSize=14;endSize=14;sourcePerimeterSpacing=8;targetPerimeterSpacing=8;exitX=0.5;exitY=1;exitDx=0;exitDy=0;entryX=1;entryY=0;entryDx=0;entryDy=0;" edge="1" parent="1" source="E4Jw4zqdP3KQkO1Rr7Cn-1" target="E4Jw4zqdP3KQkO1Rr7Cn-2">
          <mxGeometry width="50" height="50" relative="1" as="geometry">
            <mxPoint x="370" y="230" as="sourcePoint" />
            <mxPoint x="420" y="180" as="targetPoint" />
          </mxGeometry>
        </mxCell>
        <mxCell id="E4Jw4zqdP3KQkO1Rr7Cn-13" value="" style="endArrow=classic;html=1;startSize=14;endSize=14;sourcePerimeterSpacing=8;targetPerimeterSpacing=8;entryX=0.5;entryY=0;entryDx=0;entryDy=0;" edge="1" parent="1" target="E4Jw4zqdP3KQkO1Rr7Cn-3">
          <mxGeometry width="50" height="50" relative="1" as="geometry">
            <mxPoint x="380" y="80" as="sourcePoint" />
            <mxPoint x="289.9999999999998" y="130" as="targetPoint" />
          </mxGeometry>
        </mxCell>
        <mxCell id="E4Jw4zqdP3KQkO1Rr7Cn-14" value="" style="endArrow=classic;html=1;startSize=14;endSize=14;sourcePerimeterSpacing=8;targetPerimeterSpacing=8;entryX=0;entryY=0;entryDx=0;entryDy=0;" edge="1" parent="1" target="E4Jw4zqdP3KQkO1Rr7Cn-4">
          <mxGeometry width="50" height="50" relative="1" as="geometry">
            <mxPoint x="380" y="80" as="sourcePoint" />
            <mxPoint x="390" y="130" as="targetPoint" />
          </mxGeometry>
        </mxCell>
        <mxCell id="E4Jw4zqdP3KQkO1Rr7Cn-15" value="" style="endArrow=classic;html=1;startSize=14;endSize=14;sourcePerimeterSpacing=8;targetPerimeterSpacing=8;exitX=0.5;exitY=1;exitDx=0;exitDy=0;entryX=0.5;entryY=0;entryDx=0;entryDy=0;" edge="1" parent="1" source="E4Jw4zqdP3KQkO1Rr7Cn-2" target="E4Jw4zqdP3KQkO1Rr7Cn-5">
          <mxGeometry width="50" height="50" relative="1" as="geometry">
            <mxPoint x="390" y="90" as="sourcePoint" />
            <mxPoint x="289.9999999999998" y="130" as="targetPoint" />
          </mxGeometry>
        </mxCell>
        <mxCell id="E4Jw4zqdP3KQkO1Rr7Cn-16" value="" style="endArrow=classic;html=1;startSize=14;endSize=14;sourcePerimeterSpacing=8;targetPerimeterSpacing=8;exitX=0.5;exitY=1;exitDx=0;exitDy=0;entryX=0.5;entryY=0;entryDx=0;entryDy=0;" edge="1" parent="1" source="E4Jw4zqdP3KQkO1Rr7Cn-2" target="E4Jw4zqdP3KQkO1Rr7Cn-6">
          <mxGeometry width="50" height="50" relative="1" as="geometry">
            <mxPoint x="229.99999999999977" y="170" as="sourcePoint" />
            <mxPoint x="50.00000000000023" y="210" as="targetPoint" />
          </mxGeometry>
        </mxCell>
        <mxCell id="E4Jw4zqdP3KQkO1Rr7Cn-17" value="" style="endArrow=classic;html=1;startSize=14;endSize=14;sourcePerimeterSpacing=8;targetPerimeterSpacing=8;entryX=0.5;entryY=0;entryDx=0;entryDy=0;" edge="1" parent="1" target="E4Jw4zqdP3KQkO1Rr7Cn-7">
          <mxGeometry width="50" height="50" relative="1" as="geometry">
            <mxPoint x="220" y="160" as="sourcePoint" />
            <mxPoint x="179.99999999999977" y="210" as="targetPoint" />
          </mxGeometry>
        </mxCell>
        <mxCell id="E4Jw4zqdP3KQkO1Rr7Cn-18" value="" style="endArrow=classic;html=1;startSize=14;endSize=14;sourcePerimeterSpacing=8;targetPerimeterSpacing=8;entryX=0.5;entryY=0;entryDx=0;entryDy=0;exitX=0.5;exitY=1;exitDx=0;exitDy=0;" edge="1" parent="1" source="E4Jw4zqdP3KQkO1Rr7Cn-4" target="E4Jw4zqdP3KQkO1Rr7Cn-8">
          <mxGeometry width="50" height="50" relative="1" as="geometry">
            <mxPoint x="229.99999999999977" y="170" as="sourcePoint" />
            <mxPoint x="309.9999999999998" y="210" as="targetPoint" />
          </mxGeometry>
        </mxCell>
        <mxCell id="E4Jw4zqdP3KQkO1Rr7Cn-19" value="" style="endArrow=classic;html=1;startSize=14;endSize=14;sourcePerimeterSpacing=8;targetPerimeterSpacing=8;entryX=0.5;entryY=0;entryDx=0;entryDy=0;exitX=0.5;exitY=1;exitDx=0;exitDy=0;" edge="1" parent="1" source="E4Jw4zqdP3KQkO1Rr7Cn-4" target="E4Jw4zqdP3KQkO1Rr7Cn-9">
          <mxGeometry width="50" height="50" relative="1" as="geometry">
            <mxPoint x="550" y="170" as="sourcePoint" />
            <mxPoint x="470" y="210" as="targetPoint" />
          </mxGeometry>
        </mxCell>
        <mxCell id="E4Jw4zqdP3KQkO1Rr7Cn-20" value="" style="endArrow=classic;html=1;startSize=14;endSize=14;sourcePerimeterSpacing=8;targetPerimeterSpacing=8;entryX=0.5;entryY=0;entryDx=0;entryDy=0;" edge="1" parent="1" target="E4Jw4zqdP3KQkO1Rr7Cn-10">
          <mxGeometry width="50" height="50" relative="1" as="geometry">
            <mxPoint x="540" y="160" as="sourcePoint" />
            <mxPoint x="600" y="210" as="targetPoint" />
          </mxGeometry>
        </mxCell>
        <mxCell id="E4Jw4zqdP3KQkO1Rr7Cn-24" style="edgeStyle=none;curved=1;rounded=0;orthogonalLoop=1;jettySize=auto;html=1;exitX=0.5;exitY=1;exitDx=0;exitDy=0;endArrow=open;startSize=14;endSize=14;sourcePerimeterSpacing=8;targetPerimeterSpacing=8;" edge="1" parent="1" source="E4Jw4zqdP3KQkO1Rr7Cn-5">
          <mxGeometry relative="1" as="geometry">
            <mxPoint x="40" y="280" as="targetPoint" />
            <mxPoint x="50.00000000000023" y="250" as="sourcePoint" />
          </mxGeometry>
        </mxCell>
        <mxCell id="E4Jw4zqdP3KQkO1Rr7Cn-25" style="edgeStyle=none;curved=1;rounded=0;orthogonalLoop=1;jettySize=auto;html=1;endArrow=open;startSize=14;endSize=14;sourcePerimeterSpacing=8;targetPerimeterSpacing=8;" edge="1" parent="1">
          <mxGeometry relative="1" as="geometry">
            <mxPoint x="100" y="280" as="targetPoint" />
            <mxPoint x="40" y="240" as="sourcePoint" />
          </mxGeometry>
        </mxCell>
        <mxCell id="E4Jw4zqdP3KQkO1Rr7Cn-26" style="edgeStyle=none;curved=1;rounded=0;orthogonalLoop=1;jettySize=auto;html=1;exitX=0.5;exitY=1;exitDx=0;exitDy=0;endArrow=open;startSize=14;endSize=14;sourcePerimeterSpacing=8;targetPerimeterSpacing=8;" edge="1" parent="1" source="E4Jw4zqdP3KQkO1Rr7Cn-7">
          <mxGeometry relative="1" as="geometry">
            <mxPoint x="240" y="280" as="targetPoint" />
            <mxPoint x="50.00000000000023" y="250" as="sourcePoint" />
          </mxGeometry>
        </mxCell>
        <mxCell id="E4Jw4zqdP3KQkO1Rr7Cn-27" style="edgeStyle=none;curved=1;rounded=0;orthogonalLoop=1;jettySize=auto;html=1;endArrow=open;startSize=14;endSize=14;sourcePerimeterSpacing=8;targetPerimeterSpacing=8;exitX=0.5;exitY=1;exitDx=0;exitDy=0;" edge="1" parent="1" source="E4Jw4zqdP3KQkO1Rr7Cn-7">
          <mxGeometry relative="1" as="geometry">
            <mxPoint x="300" y="280" as="targetPoint" />
            <mxPoint x="310" y="260" as="sourcePoint" />
          </mxGeometry>
        </mxCell>
        <mxCell id="E4Jw4zqdP3KQkO1Rr7Cn-28" style="edgeStyle=none;curved=1;rounded=0;orthogonalLoop=1;jettySize=auto;html=1;endArrow=open;startSize=14;endSize=14;sourcePerimeterSpacing=8;targetPerimeterSpacing=8;" edge="1" parent="1">
          <mxGeometry relative="1" as="geometry">
            <mxPoint x="360" y="280" as="targetPoint" />
            <mxPoint x="300" y="240" as="sourcePoint" />
          </mxGeometry>
        </mxCell>
        <mxCell id="E4Jw4zqdP3KQkO1Rr7Cn-29" style="edgeStyle=none;curved=1;rounded=0;orthogonalLoop=1;jettySize=auto;html=1;exitX=0.5;exitY=1;exitDx=0;exitDy=0;endArrow=open;startSize=14;endSize=14;sourcePerimeterSpacing=8;targetPerimeterSpacing=8;" edge="1" parent="1" source="E4Jw4zqdP3KQkO1Rr7Cn-8">
          <mxGeometry relative="1" as="geometry">
            <mxPoint x="400" y="280" as="targetPoint" />
            <mxPoint x="309.9999999999998" y="250" as="sourcePoint" />
          </mxGeometry>
        </mxCell>
        <mxCell id="E4Jw4zqdP3KQkO1Rr7Cn-30" style="edgeStyle=none;curved=1;rounded=0;orthogonalLoop=1;jettySize=auto;html=1;endArrow=open;startSize=14;endSize=14;sourcePerimeterSpacing=8;targetPerimeterSpacing=8;exitX=0.5;exitY=1;exitDx=0;exitDy=0;" edge="1" parent="1" source="E4Jw4zqdP3KQkO1Rr7Cn-8">
          <mxGeometry relative="1" as="geometry">
            <mxPoint x="460" y="280" as="targetPoint" />
            <mxPoint x="309.9999999999998" y="250" as="sourcePoint" />
          </mxGeometry>
        </mxCell>
        <mxCell id="E4Jw4zqdP3KQkO1Rr7Cn-31" style="edgeStyle=none;curved=1;rounded=0;orthogonalLoop=1;jettySize=auto;html=1;endArrow=open;startSize=14;endSize=14;sourcePerimeterSpacing=8;targetPerimeterSpacing=8;" edge="1" parent="1">
          <mxGeometry relative="1" as="geometry">
            <mxPoint x="520" y="280" as="targetPoint" />
            <mxPoint x="460" y="240" as="sourcePoint" />
          </mxGeometry>
        </mxCell>
        <mxCell id="E4Jw4zqdP3KQkO1Rr7Cn-32" style="edgeStyle=none;curved=1;rounded=0;orthogonalLoop=1;jettySize=auto;html=1;endArrow=open;startSize=14;endSize=14;sourcePerimeterSpacing=8;targetPerimeterSpacing=8;exitX=0.5;exitY=1;exitDx=0;exitDy=0;" edge="1" parent="1" source="E4Jw4zqdP3KQkO1Rr7Cn-10">
          <mxGeometry relative="1" as="geometry">
            <mxPoint x="720" y="280" as="targetPoint" />
            <mxPoint x="470" y="250" as="sourcePoint" />
          </mxGeometry>
        </mxCell>
        <mxCell id="E4Jw4zqdP3KQkO1Rr7Cn-33" style="edgeStyle=none;curved=1;rounded=0;orthogonalLoop=1;jettySize=auto;html=1;endArrow=open;startSize=14;endSize=14;sourcePerimeterSpacing=8;targetPerimeterSpacing=8;exitX=0.5;exitY=1;exitDx=0;exitDy=0;" edge="1" parent="1" source="E4Jw4zqdP3KQkO1Rr7Cn-10">
          <mxGeometry relative="1" as="geometry">
            <mxPoint x="660" y="280" as="targetPoint" />
            <mxPoint x="470" y="250" as="sourcePoint" />
          </mxGeometry>
        </mxCell>
        <mxCell id="E4Jw4zqdP3KQkO1Rr7Cn-34" style="edgeStyle=none;curved=1;rounded=0;orthogonalLoop=1;jettySize=auto;html=1;endArrow=open;startSize=14;endSize=14;sourcePerimeterSpacing=8;targetPerimeterSpacing=8;" edge="1" parent="1">
          <mxGeometry relative="1" as="geometry">
            <mxPoint x="780" y="280" as="targetPoint" />
            <mxPoint x="720" y="240" as="sourcePoint" />
          </mxGeometry>
        </mxCell>
        <mxCell id="E4Jw4zqdP3KQkO1Rr7Cn-37" value="……" style="text;html=1;resizable=0;autosize=1;align=center;verticalAlign=middle;points=[];fillColor=none;strokeColor=none;rounded=0;hachureGap=4;pointerEvents=0;" vertex="1" parent="1">
          <mxGeometry x="20" y="290" width="40" height="20" as="geometry" />
        </mxCell>
        <mxCell id="E4Jw4zqdP3KQkO1Rr7Cn-38" value="……" style="text;html=1;resizable=0;autosize=1;align=center;verticalAlign=middle;points=[];fillColor=none;strokeColor=none;rounded=0;hachureGap=4;pointerEvents=0;" vertex="1" parent="1">
          <mxGeometry x="280" y="290" width="40" height="20" as="geometry" />
        </mxCell>
        <mxCell id="E4Jw4zqdP3KQkO1Rr7Cn-39" value="……" style="text;html=1;resizable=0;autosize=1;align=center;verticalAlign=middle;points=[];fillColor=none;strokeColor=none;rounded=0;hachureGap=4;pointerEvents=0;" vertex="1" parent="1">
          <mxGeometry x="440" y="290" width="40" height="20" as="geometry" />
        </mxCell>
        <mxCell id="E4Jw4zqdP3KQkO1Rr7Cn-40" value="……" style="text;html=1;resizable=0;autosize=1;align=center;verticalAlign=middle;points=[];fillColor=none;strokeColor=none;rounded=0;hachureGap=4;pointerEvents=0;" vertex="1" parent="1">
          <mxGeometry x="700" y="290" width="40" height="20" as="geometry" />
        </mxCell>
        <mxCell id="E4Jw4zqdP3KQkO1Rr7Cn-41" value="" style="shape=flexArrow;endArrow=classic;html=1;startSize=14;endSize=6.325;sourcePerimeterSpacing=8;targetPerimeterSpacing=8;width=5;endWidth=10.694444444444445;" edge="1" parent="1">
          <mxGeometry width="50" height="50" relative="1" as="geometry">
            <mxPoint x="-80" y="360" as="sourcePoint" />
            <mxPoint x="-80" y="280" as="targetPoint" />
          </mxGeometry>
        </mxCell>
        <mxCell id="E4Jw4zqdP3KQkO1Rr7Cn-42" value="" style="shape=flexArrow;endArrow=classic;html=1;startSize=14;endSize=6.325;sourcePerimeterSpacing=8;targetPerimeterSpacing=8;width=5;endWidth=10.694444444444445;" edge="1" parent="1">
          <mxGeometry width="50" height="50" relative="1" as="geometry">
            <mxPoint x="-30" y="200" as="sourcePoint" />
            <mxPoint x="-30" y="120" as="targetPoint" />
          </mxGeometry>
        </mxCell>
        <mxCell id="E4Jw4zqdP3KQkO1Rr7Cn-43" value="" style="shape=flexArrow;endArrow=classic;html=1;startSize=14;endSize=6.325;sourcePerimeterSpacing=8;targetPerimeterSpacing=8;width=5;endWidth=10.694444444444445;" edge="1" parent="1">
          <mxGeometry width="50" height="50" relative="1" as="geometry">
            <mxPoint x="130" y="120" as="sourcePoint" />
            <mxPoint x="130" y="40" as="targetPoint" />
          </mxGeometry>
        </mxCell>
        <mxCell id="E4Jw4zqdP3KQkO1Rr7Cn-44" value="Maximum Value" style="text;html=1;resizable=0;autosize=1;align=center;verticalAlign=middle;points=[];fillColor=none;strokeColor=none;rounded=0;hachureGap=4;pointerEvents=0;" vertex="1" parent="1">
          <mxGeometry x="-130" y="250" width="100" height="20" as="geometry" />
        </mxCell>
        <mxCell id="E4Jw4zqdP3KQkO1Rr7Cn-45" value="Maximum Value" style="text;html=1;resizable=0;autosize=1;align=center;verticalAlign=middle;points=[];fillColor=none;strokeColor=none;rounded=0;hachureGap=4;pointerEvents=0;" vertex="1" parent="1">
          <mxGeometry x="-60" y="90" width="100" height="20" as="geometry" />
        </mxCell>
        <mxCell id="E4Jw4zqdP3KQkO1Rr7Cn-46" value="Maximum Value" style="text;html=1;resizable=0;autosize=1;align=center;verticalAlign=middle;points=[];fillColor=none;strokeColor=none;rounded=0;hachureGap=4;pointerEvents=0;" vertex="1" parent="1">
          <mxGeometry x="140" y="20" width="100" height="20" as="geometry" />
        </mxCell>
      </root>
    </mxGraphModel>
  </diagram>
</mxfile>
